<?xml version="1.0" encoding="UTF-8"?>
<svg version="1.1" xmlns="http://www.w3.org/2000/svg" width="512" height="512">
<path d="M0 0 C0.81726563 0.64195313 1.63453125 1.28390625 2.4765625 1.9453125 C13.62015539 11.29489044 21.33116817 23.71015584 27 37 C27 37.66 27 38.32 27 39 C27.69222656 39.07476562 28.38445312 39.14953125 29.09765625 39.2265625 C50.10875293 42.05018814 69.97357359 53.75191487 83.4375 70.0625 C89.52214665 78.19657784 100 92.35628849 100 103 C100.62003906 103.12375 101.24007813 103.2475 101.87890625 103.375 C114.78029969 106.37969134 126.2406358 113.13219273 136 122 C136.90363281 122.81082031 137.80726563 123.62164062 138.73828125 124.45703125 C155.63536271 140.4192811 164.80839461 161.93580301 165.9921875 185.1484375 C166.04582063 211.58957272 156.91356886 234.13385836 138.78125 253.3515625 C129.478036 262.06464725 118.04973977 268.9183945 106 273 C104.89269531 273.391875 103.78539062 273.78375 102.64453125 274.1875 C79.81597725 281.11544895 55.90525182 277.96979249 34.9140625 267.390625 C32.23731078 265.8564384 32.23731078 265.8564384 30 266 C28.46542633 267.51719983 28.46542633 267.51719983 26.875 269.5 C21.71182618 275.56672924 16.2808097 281.08836335 10 286 C10.64066406 286.67804688 11.28132813 287.35609375 11.94140625 288.0546875 C12.80636719 288.98539062 13.67132813 289.91609375 14.5625 290.875 C15.25085938 291.61351196 15.25085938 291.61351196 15.953125 292.36694336 C19.51403796 296.2676143 22.29094593 300.36581747 24.84375 305.00390625 C28.31398733 308.21639044 32.43669898 308.30477481 37 309 C62.05353815 313.75678985 83.46574274 322.03551195 102 340 C102.89912109 340.78890625 102.89912109 340.78890625 103.81640625 341.59375 C117.60503741 354.134686 127.14869316 374.7390569 130 393 C129.57509653 397.75793071 129.10461376 401.27446349 126 405 C119.27593501 409.00178616 112.18224939 408.43710776 104.5625 408.3984375 C103.15437673 408.40046173 101.74625448 408.40337606 100.33813477 408.40713501 C97.39621944 408.41154201 94.45457857 408.40518021 91.51269531 408.39111328 C87.75688322 408.37402199 84.00171444 408.38387197 80.2459259 408.40183067 C77.34097517 408.4127128 74.43617495 408.40920201 71.53121948 408.4014473 C70.14704307 408.39945749 68.76285264 408.40186134 67.37869263 408.40888596 C60.17235941 408.43743926 54.40882955 408.43135314 48 405 C45.08870651 404.72623544 45.08870651 404.72623544 42.3125 404.8125 C39.453125 404.63671875 39.453125 404.63671875 37 404 C35.37100695 402.06009699 34.63236875 400.31705303 33.76953125 397.9453125 C32.76913425 395.41639014 31.33027542 394.33158596 29 393 C29.33 393.99 29.66 394.98 30 396 C28.30250638 401.18678607 26.69462046 403.9484967 22 407 C18.95299371 408.01566876 16.90394898 408.12726586 13.71532059 408.13142776 C12.61291133 408.13526891 11.51050208 408.13911005 10.37468648 408.1430676 C8.55064703 408.14176787 8.55064703 408.14176787 6.6897583 408.14044189 C4.75771801 408.14489858 4.75771801 408.14489858 2.7866466 408.1494453 C-0.79596236 408.15752387 -4.3785513 408.15930534 -7.96116829 408.16004276 C-11.82223169 408.16189184 -15.68328466 408.16943846 -19.54434204 408.17617798 C-27.99064459 408.18976811 -36.43694239 408.19578713 -44.88325405 408.20018864 C-50.15602914 408.20295002 -55.42880239 408.20718719 -60.70157623 408.21169281 C-75.29690308 408.22388657 -89.89222845 408.23418554 -104.48756027 408.2375679 C-105.42195913 408.23778747 -106.35635799 408.23800703 -107.31907196 408.23823325 C-108.25572301 408.23845153 -109.19237406 408.23866981 -110.15740848 408.2388947 C-112.05545982 408.23933817 -113.95351116 408.23978473 -115.8515625 408.24023438 C-116.79306409 408.2404558 -117.73456568 408.24067723 -118.70459762 408.24090537 C-133.96070245 408.24485348 -149.21675951 408.2623074 -164.47284588 408.2855939 C-180.1315584 408.30930225 -195.79024695 408.32176952 -211.44897771 408.32293582 C-220.24256951 408.32385289 -229.03609909 408.32961329 -237.82967377 408.34775543 C-245.31770005 408.36314948 -252.80564488 408.36828102 -260.29368398 408.36001733 C-264.11428613 408.35610829 -267.93472423 408.35705269 -271.75530624 408.37107468 C-275.89759749 408.38613834 -280.03951842 408.37795461 -284.18182373 408.36749268 C-285.99247885 408.37957728 -285.99247885 408.37957728 -287.83971286 408.39190602 C-293.99435842 408.3554604 -298.59868922 408.05908347 -304 405 C-305.59375 403.2734375 -305.59375 403.2734375 -306.5 401.375 C-306.8196875 400.76398438 -307.139375 400.15296875 -307.46875 399.5234375 C-308.9053125 392.69976562 -306.58023058 385.68516724 -304.375 379.25 C-303.97631714 378.07993408 -303.97631714 378.07993408 -303.56958008 376.88623047 C-294.54654943 351.31091345 -275.74600641 331.35981563 -251.49755859 319.71435547 C-238.28435395 313.67756004 -224.37622287 309.86756417 -209.8828125 308.75 C-203.95295777 307.20727357 -200.71116309 301.51656101 -197.1875 296.8125 C-196.39730469 295.76707031 -195.60710937 294.72164063 -194.79296875 293.64453125 C-192.8129425 291.25660709 -192.8129425 291.25660709 -193 289 C-195.97 287.35 -198.94 285.7 -202 284 C-203.216875 284.86625 -204.43375 285.7325 -205.6875 286.625 C-225.90184551 300.0170039 -250.50307642 304.1952168 -274.15673828 299.48266602 C-295.98316732 294.57757509 -316.46560308 281.07110451 -328.6875 262.25 C-342.10806884 240.78860966 -346.54163976 217.97276296 -342 193 C-341.49608885 191.23875716 -340.95930749 189.48622796 -340.375 187.75 C-338.66805118 182.26579316 -338.89503892 176.99333892 -339 171.3125 C-339.21499182 159.24340928 -339.15969735 144.27964232 -330.9375 134.5625 C-326.63958966 132.27637748 -322.770152 132.33988012 -318 133 C-314.63068763 134.50543744 -312.55171162 136.40466938 -310 139 C-308.06015834 136.91880554 -306.12307706 134.83515453 -304.1875 132.75 C-303.64029297 132.16347656 -303.09308594 131.57695312 -302.52929688 130.97265625 C-299.85219687 128.08463321 -297.27491168 125.22478709 -295 122 C-294.319375 122.144375 -293.63875 122.28875 -292.9375 122.4375 C-291.968125 122.623125 -290.99875 122.80875 -290 123 C-288.96875 123.309375 -287.9375 123.61875 -286.875 123.9375 C-281.84895175 124.01856529 -279.33119744 122.19147125 -275.0703125 119.6953125 C-259.51492671 111.10620635 -243.11727357 109.67625756 -226 113 C-224.77796875 113.35835937 -223.5559375 113.71671875 -222.296875 114.0859375 C-217.85292353 115.31802831 -215.47871704 115.02790227 -211 114 C-207.55255874 111.19573808 -206.18682975 108.50769799 -204.6875 104.375 C-202.24346511 98.20851197 -199.02926254 93.23709767 -195 88 C-194.278125 86.989375 -193.55625 85.97875 -192.8125 84.9375 C-182.50439478 73.08485784 -166.65912853 65.60238299 -151.11450195 64.31640625 C-150.09876099 64.25259766 -150.09876099 64.25259766 -149.0625 64.1875 C-148.33957764 64.14109375 -147.61665527 64.0946875 -146.87182617 64.046875 C-140.62376828 63.77718436 -134.79910733 64.61012816 -128.70922852 65.96948242 C-124.47536066 66.89307584 -121.2075837 67.10725887 -117 66 C-111.6894582 62.37328853 -110.50212534 57.30079978 -108.375 51.41796875 C-102.37746725 36.5093291 -90.87377894 25.0074677 -76.4375 18.1875 C-74.63516226 17.43356435 -72.82283192 16.70293958 -71 16 C-69.83597656 15.53787109 -69.83597656 15.53787109 -68.6484375 15.06640625 C-53.83190973 9.88805457 -37.48762816 11.44127362 -23.14453125 17.1953125 C-21.06966895 18.11710344 -21.06966895 18.11710344 -19 18 C-34.28555218 8.052786 -49.82051939 4.38645945 -68 7 C-84.79262541 10.56794812 -99.34596943 19.34509598 -108.8125 33.75 C-112.34350537 39.32559096 -114.68015769 45.05082061 -116.890625 51.2734375 C-118.75186594 55.84789586 -121.07932352 57.85797615 -125.3125 60.375 C-129.9320373 61.449311 -134.28126201 60.31143345 -138.8671875 59.48046875 C-158.31347619 56.04149403 -174.46593702 60.27361355 -190.9140625 70.87890625 C-200.91491971 78.29440254 -207.200408 88.32600668 -212.08642578 99.56835938 C-214.2081623 104.22667768 -216.32485942 106.53907508 -221 109 C-225.41879573 109.60650137 -228.91813006 108.7958639 -233.125 107.5625 C-251.68224085 102.24596442 -268.69356993 106.40870147 -285.3125 115.375 C-288.81738727 117.16443453 -291.46646441 118.46264666 -295.4375 118.1875 C-300.42758906 116.52413698 -302.6532603 114.1079404 -305.4375 109.75 C-306.29012003 105.58163539 -305.91215058 101.8180318 -304 98 C-293.70388585 86.99613034 -275.41604063 80.6011162 -260.76367188 79.82958984 C-240.41443771 79.26309306 -240.41443771 79.26309306 -231 81 C-230.62101562 79.68322266 -230.62101562 79.68322266 -230.234375 78.33984375 C-228.20392785 72.84607062 -224.55435457 68.60174042 -221 64 C-220.32324219 63.06994141 -220.32324219 63.06994141 -219.6328125 62.12109375 C-206.61796404 45.34729837 -184.29963911 35.38964383 -163.75 32.75 C-154.62330689 31.70814496 -146.10696202 31.93530298 -137 33 C-136.89558594 32.27941406 -136.79117188 31.55882812 -136.68359375 30.81640625 C-133.05750409 15.87691684 -117.5165761 2.16020718 -105 -6 C-71.58045458 -26.06821038 -30.66367682 -24.38442559 0 0 Z M15 63 C16.89432244 66.59921263 18.07894553 68.71035085 22 70 C24.86118747 70.56193783 27.73821346 70.96856889 30.625 71.375 C36.88064044 72.31550924 42.41589614 73.53578013 48.15234375 76.328125 C50.18445897 77.28373296 50.18445897 77.28373296 53 76 C40.89925806 67.84041624 29.79185348 63.53303977 15 63 Z M87 126 C88.47996643 129.90172969 90.33908148 131.11001361 94 133 C96.45993223 133.73446934 98.94211145 134.39688494 101.4375 135 C105.36342728 135.95077956 108.73542724 136.8666331 112.34765625 138.6875 C113.22292969 139.120625 114.09820312 139.55375 115 140 C115.66 139.67 116.32 139.34 117 139 C108.20872612 132.11383287 98.32559905 126.79015807 87 126 Z M-310 143 C-313.14555054 153.74261679 -314.24610239 163.60519752 -314 174.8125 C-313.81690027 183.37933014 -313.9613927 190.20617841 -317.03515625 198.24609375 C-321.50617135 211.00749312 -318.48606859 225.7345514 -313.5078125 237.8671875 C-311.10254474 242.86466092 -308.16259952 247.4520543 -305 252 C-304.505 251.01 -304.505 251.01 -304 250 C-304.71413677 248.14384704 -305.49903853 246.31482109 -306.3125 244.5 C-311.85269396 230.47928569 -312.88863199 214.0682454 -307.41796875 199.85546875 C-305.42013795 194.06047289 -305.79819605 188.43176798 -306 182.375 C-306.17022116 173.50354717 -305.84482578 165.52903536 -303.55859375 156.953125 C-302.92441606 153.60040939 -303.12055114 151.28757321 -304 148 C-306.37500791 145.12359384 -306.37500791 145.12359384 -309 143 C-309.33 143 -309.66 143 -310 143 Z M-148 287 C-148.98742187 287.54398437 -149.97484375 288.08796875 -150.9921875 288.6484375 C-165.19502622 297.08780543 -177.49919497 309.94604034 -185.68066406 324.21630859 C-188.2296945 328.46826273 -190.31707509 330.38705227 -195 332 C-198.58776371 332.64199744 -202.18766591 333.00864454 -205.8125 333.375 C-229.71990588 336.20648743 -251.39002679 344.54700958 -267.625 362.98046875 C-272.52634576 369.21194946 -276.11124391 375.62568796 -279 383 C-275.14582351 383.6899882 -271.82734251 383.9270559 -268 383 C-264.93712714 379.74972383 -263.11241972 375.90901198 -261 372 C-248.3524623 354.29964699 -225.02135533 345.53419715 -204.37426758 342.00048828 C-200.98707862 341.44416052 -197.60443155 340.94918185 -194.19921875 340.51171875 C-193.06097656 340.36347656 -191.92273438 340.21523438 -190.75 340.0625 C-189.25726563 339.89427734 -189.25726563 339.89427734 -187.734375 339.72265625 C-182.23603211 338.26952277 -179.51448964 334.67762239 -176.75 329.9375 C-172.99972347 323.83107148 -168.70313794 318.39801598 -164 313 C-163.45988281 312.37480469 -162.91976562 311.74960937 -162.36328125 311.10546875 C-146.69849729 294.25694797 -121.56525964 283.09168148 -99 280 C-98.25492188 279.89042969 -97.50984375 279.78085937 -96.7421875 279.66796875 C-73.52081539 276.79403656 -50.43137093 280.66426093 -29.328125 290.51171875 C-26.82031169 291.63317048 -24.67619049 292.49314574 -22 293 C-35.88696316 277.26144175 -63.32576355 272.35986798 -83.13232422 270.8359375 C-106.12919825 269.50181863 -128.06595383 275.9644945 -148 287 Z M18 333 C18.99338004 335.88080212 19.9136602 336.94203094 22.47265625 338.66015625 C27.09394979 340.41553131 31.54509073 340.90302808 36.4375 341.4375 C49.69123307 343.08451705 61.51174634 345.84176044 73.48828125 351.92578125 C74.31714844 352.28027344 75.14601563 352.63476562 76 353 C76.66 352.67 77.32 352.34 78 352 C60.0651232 339.85172673 39.90120418 332.2575863 18 333 Z " fill="#FEB900" transform="translate(345,62)"/>
<path d="M0 0 C0.81726563 0.64195313 1.63453125 1.28390625 2.4765625 1.9453125 C13.62015539 11.29489044 21.33116817 23.71015584 27 37 C27 37.66 27 38.32 27 39 C27.69222656 39.07476562 28.38445312 39.14953125 29.09765625 39.2265625 C50.10875293 42.05018814 69.97357359 53.75191487 83.4375 70.0625 C89.52214665 78.19657784 100 92.35628849 100 103 C100.62003906 103.12375 101.24007813 103.2475 101.87890625 103.375 C114.78029969 106.37969134 126.2406358 113.13219273 136 122 C136.90363281 122.81082031 137.80726563 123.62164062 138.73828125 124.45703125 C155.63536271 140.4192811 164.80839461 161.93580301 165.9921875 185.1484375 C166.04582063 211.58957272 156.91356886 234.13385836 138.78125 253.3515625 C129.478036 262.06464725 118.04973977 268.9183945 106 273 C104.89269531 273.391875 103.78539062 273.78375 102.64453125 274.1875 C79.81597725 281.11544895 55.90525182 277.96979249 34.9140625 267.390625 C32.23731078 265.8564384 32.23731078 265.8564384 30 266 C28.46542633 267.51719983 28.46542633 267.51719983 26.875 269.5 C21.71182618 275.56672924 16.2808097 281.08836335 10 286 C10.64066406 286.67804688 11.28132813 287.35609375 11.94140625 288.0546875 C12.80636719 288.98539062 13.67132813 289.91609375 14.5625 290.875 C15.25085938 291.61351196 15.25085938 291.61351196 15.953125 292.36694336 C19.51403796 296.2676143 22.29094593 300.36581747 24.84375 305.00390625 C28.31398733 308.21639044 32.43669898 308.30477481 37 309 C62.05353815 313.75678985 83.46574274 322.03551195 102 340 C102.89912109 340.78890625 102.89912109 340.78890625 103.81640625 341.59375 C117.60503741 354.134686 127.14869316 374.7390569 130 393 C129.57509653 397.75793071 129.10461376 401.27446349 126 405 C119.27593501 409.00178616 112.18224939 408.43710776 104.5625 408.3984375 C103.15437673 408.40046173 101.74625448 408.40337606 100.33813477 408.40713501 C97.39621944 408.41154201 94.45457857 408.40518021 91.51269531 408.39111328 C87.75688322 408.37402199 84.00171444 408.38387197 80.2459259 408.40183067 C77.34097517 408.4127128 74.43617495 408.40920201 71.53121948 408.4014473 C70.14704307 408.39945749 68.76285264 408.40186134 67.37869263 408.40888596 C60.17235941 408.43743926 54.40882955 408.43135314 48 405 C45.08870651 404.72623544 45.08870651 404.72623544 42.3125 404.8125 C39.453125 404.63671875 39.453125 404.63671875 37 404 C35.37100695 402.06009699 34.63236875 400.31705303 33.76953125 397.9453125 C32.76913425 395.41639014 31.33027542 394.33158596 29 393 C29.33 393.99 29.66 394.98 30 396 C28.30250638 401.18678607 26.69462046 403.9484967 22 407 C18.95299371 408.01566876 16.90394898 408.12726586 13.71532059 408.13142776 C12.61291133 408.13526891 11.51050208 408.13911005 10.37468648 408.1430676 C8.55064703 408.14176787 8.55064703 408.14176787 6.6897583 408.14044189 C4.75771801 408.14489858 4.75771801 408.14489858 2.7866466 408.1494453 C-0.79596236 408.15752387 -4.3785513 408.15930534 -7.96116829 408.16004276 C-11.82223169 408.16189184 -15.68328466 408.16943846 -19.54434204 408.17617798 C-27.99064459 408.18976811 -36.43694239 408.19578713 -44.88325405 408.20018864 C-50.15602914 408.20295002 -55.42880239 408.20718719 -60.70157623 408.21169281 C-75.29690308 408.22388657 -89.89222845 408.23418554 -104.48756027 408.2375679 C-105.42195913 408.23778747 -106.35635799 408.23800703 -107.31907196 408.23823325 C-108.25572301 408.23845153 -109.19237406 408.23866981 -110.15740848 408.2388947 C-112.05545982 408.23933817 -113.95351116 408.23978473 -115.8515625 408.24023438 C-116.79306409 408.2404558 -117.73456568 408.24067723 -118.70459762 408.24090537 C-133.96070245 408.24485348 -149.21675951 408.2623074 -164.47284588 408.2855939 C-180.1315584 408.30930225 -195.79024695 408.32176952 -211.44897771 408.32293582 C-220.24256951 408.32385289 -229.03609909 408.32961329 -237.82967377 408.34775543 C-245.31770005 408.36314948 -252.80564488 408.36828102 -260.29368398 408.36001733 C-264.11428613 408.35610829 -267.93472423 408.35705269 -271.75530624 408.37107468 C-275.89759749 408.38613834 -280.03951842 408.37795461 -284.18182373 408.36749268 C-285.99247885 408.37957728 -285.99247885 408.37957728 -287.83971286 408.39190602 C-293.99435842 408.3554604 -298.59868922 408.05908347 -304 405 C-305.59375 403.2734375 -305.59375 403.2734375 -306.5 401.375 C-306.8196875 400.76398438 -307.139375 400.15296875 -307.46875 399.5234375 C-308.9053125 392.69976562 -306.58023058 385.68516724 -304.375 379.25 C-303.97631714 378.07993408 -303.97631714 378.07993408 -303.56958008 376.88623047 C-294.54654943 351.31091345 -275.74600641 331.35981563 -251.49755859 319.71435547 C-238.28435395 313.67756004 -224.37622287 309.86756417 -209.8828125 308.75 C-203.95295777 307.20727357 -200.71116309 301.51656101 -197.1875 296.8125 C-196.39730469 295.76707031 -195.60710937 294.72164063 -194.79296875 293.64453125 C-192.8129425 291.25660709 -192.8129425 291.25660709 -193 289 C-195.97 287.35 -198.94 285.7 -202 284 C-203.216875 284.86625 -204.43375 285.7325 -205.6875 286.625 C-225.90184551 300.0170039 -250.50307642 304.1952168 -274.15673828 299.48266602 C-295.98316732 294.57757509 -316.46560308 281.07110451 -328.6875 262.25 C-342.10806884 240.78860966 -346.54163976 217.97276296 -342 193 C-341.49608885 191.23875716 -340.95930749 189.48622796 -340.375 187.75 C-338.66805118 182.26579316 -338.89503892 176.99333892 -339 171.3125 C-339.21499182 159.24340928 -339.15969735 144.27964232 -330.9375 134.5625 C-326.62375964 132.26795725 -322.7848172 132.36938159 -318 133 C-314.10989863 134.40705794 -313.23154951 135.60636584 -311.125 139.1875 C-309.63183057 144.24768529 -310.30084398 148.14508564 -311.52124023 153.12841797 C-313.18683113 160.26147557 -313.07827521 167.02414111 -312.875 174.3125 C-312.7401547 182.99980656 -312.92133694 190.10140624 -316.03515625 198.24609375 C-320.89053539 212.10456458 -317.0993483 228.18651498 -311 241 C-302.98623462 255.86843253 -291.24884823 267.55792544 -275 273 C-268.46174979 274.8496586 -262.27311876 275.30915388 -255.5 275.25 C-254.61441406 275.25773437 -253.72882813 275.26546875 -252.81640625 275.2734375 C-237.91285617 275.2296679 -224.04855555 269.83260655 -212.76171875 260.0625 C-206.30303584 254.52967319 -206.30303584 254.52967319 -201.4375 254.1875 C-196.08103343 254.65086216 -192.96044674 257.63472244 -189 261 C-180.64328181 267.99685453 -180.64328181 267.99685453 -170.7890625 270.8203125 C-167.08335421 269.7303983 -163.98030018 267.83933811 -160.6875 265.875 C-149.67522243 259.53601583 -138.67501465 254.48402786 -126.375 251.1875 C-125.64821045 250.9925293 -124.9214209 250.79755859 -124.17260742 250.59667969 C-88.70860763 241.7179567 -50.03458144 246.66740872 -18.515625 265.24316406 C-15.68273583 266.86535702 -13.61366739 268.01067248 -10.3046875 267.953125 C-3.98143046 265.33808311 1.41215968 259.95982738 6 255 C6.46921875 254.50113281 6.9384375 254.00226563 7.421875 253.48828125 C11.11983579 249.39955656 13.85417444 245.06189735 16.5078125 240.234375 C18.13409222 237.7992127 19.47620292 236.47573982 22 235 C24.18359375 234.6015625 24.18359375 234.6015625 26.4375 234.625 C27.17871094 234.61726562 27.91992188 234.60953125 28.68359375 234.6015625 C31.65877076 235.11331301 33.4909274 236.33369872 36 238 C36.86238281 238.55558594 37.72476562 239.11117188 38.61328125 239.68359375 C39.50402344 240.26238281 40.39476562 240.84117187 41.3125 241.4375 C55.89387131 250.66007173 72.15920122 254.98544075 89.43212891 251.51074219 C99.1815518 249.02330042 107.96857079 245.11853813 116 239 C116.70125 238.49082031 117.4025 237.98164063 118.125 237.45703125 C129.77173237 228.24428397 137.94128237 212.67955181 140 198 C140.9359173 179.71361586 138.45784467 162.58115505 126.1875 148.125 C115.34649107 136.90944565 103.25970831 130.66443776 88.4453125 126.37109375 C83.63311434 124.4560353 80.17823847 122.5582574 77.98925781 117.80541992 C77.08669613 115.18199786 76.31091234 112.54635753 75.5625 109.875 C70.09497501 92.12755354 60.13872648 80.084715 43.88232422 70.96630859 C35.4409161 66.63283345 26.3126514 64.53645245 16.90234375 63.65234375 C13.02761841 62.78144317 10.99259296 61.64698101 8 59 C6.32298826 55.91508098 5.20688727 52.68814661 4.0625 49.375 C1.23006921 41.78658148 -1.63095708 35.18217191 -7 29 C-7.85271484 27.98486328 -7.85271484 27.98486328 -8.72265625 26.94921875 C-20.20015238 14.39951492 -36.1740937 7.23719899 -53 6 C-71.14194186 5.82776637 -88.40220937 11.67331515 -101.65234375 24.36328125 C-108.81570825 32.40865735 -113.29648995 41.15570115 -116.890625 51.2734375 C-118.75186594 55.84789586 -121.07932352 57.85797615 -125.3125 60.375 C-129.9320373 61.449311 -134.28126201 60.31143345 -138.8671875 59.48046875 C-158.31347619 56.04149403 -174.46593702 60.27361355 -190.9140625 70.87890625 C-200.91491971 78.29440254 -207.200408 88.32600668 -212.08642578 99.56835938 C-214.2081623 104.22667768 -216.32485942 106.53907508 -221 109 C-225.41879573 109.60650137 -228.91813006 108.7958639 -233.125 107.5625 C-251.68224085 102.24596442 -268.69356993 106.40870147 -285.3125 115.375 C-288.81738727 117.16443453 -291.46646441 118.46264666 -295.4375 118.1875 C-300.42758906 116.52413698 -302.6532603 114.1079404 -305.4375 109.75 C-306.29012003 105.58163539 -305.91215058 101.8180318 -304 98 C-293.70388585 86.99613034 -275.41604063 80.6011162 -260.76367188 79.82958984 C-240.41443771 79.26309306 -240.41443771 79.26309306 -231 81 C-230.62101562 79.68322266 -230.62101562 79.68322266 -230.234375 78.33984375 C-228.20392785 72.84607062 -224.55435457 68.60174042 -221 64 C-220.32324219 63.06994141 -220.32324219 63.06994141 -219.6328125 62.12109375 C-206.61796404 45.34729837 -184.29963911 35.38964383 -163.75 32.75 C-154.62330689 31.70814496 -146.10696202 31.93530298 -137 33 C-136.89558594 32.27941406 -136.79117188 31.55882812 -136.68359375 30.81640625 C-133.05750409 15.87691684 -117.5165761 2.16020718 -105 -6 C-71.58045458 -26.06821038 -30.66367682 -24.38442559 0 0 Z M-148 287 C-148.98742187 287.54398437 -149.97484375 288.08796875 -150.9921875 288.6484375 C-165.19502622 297.08780543 -177.49919497 309.94604034 -185.68066406 324.21630859 C-188.2296945 328.46826273 -190.31707509 330.38705227 -195 332 C-198.58776371 332.64199744 -202.18766591 333.00864454 -205.8125 333.375 C-229.71990588 336.20648743 -251.39002679 344.54700958 -267.625 362.98046875 C-272.52634576 369.21194946 -276.11124391 375.62568796 -279 383 C-275.14582351 383.6899882 -271.82734251 383.9270559 -268 383 C-264.93712714 379.74972383 -263.11241972 375.90901198 -261 372 C-248.3524623 354.29964699 -225.02135533 345.53419715 -204.37426758 342.00048828 C-200.98707862 341.44416052 -197.60443155 340.94918185 -194.19921875 340.51171875 C-193.06097656 340.36347656 -191.92273438 340.21523438 -190.75 340.0625 C-189.25726563 339.89427734 -189.25726563 339.89427734 -187.734375 339.72265625 C-182.23603211 338.26952277 -179.51448964 334.67762239 -176.75 329.9375 C-172.99972347 323.83107148 -168.70313794 318.39801598 -164 313 C-163.45988281 312.37480469 -162.91976562 311.74960937 -162.36328125 311.10546875 C-146.69849729 294.25694797 -121.56525964 283.09168148 -99 280 C-98.25492188 279.89042969 -97.50984375 279.78085937 -96.7421875 279.66796875 C-73.52081539 276.79403656 -50.43137093 280.66426093 -29.328125 290.51171875 C-26.82031169 291.63317048 -24.67619049 292.49314574 -22 293 C-35.88696316 277.26144175 -63.32576355 272.35986798 -83.13232422 270.8359375 C-106.12919825 269.50181863 -128.06595383 275.9644945 -148 287 Z M18 333 C18.99338004 335.88080212 19.9136602 336.94203094 22.47265625 338.66015625 C27.09394979 340.41553131 31.54509073 340.90302808 36.4375 341.4375 C49.69123307 343.08451705 61.51174634 345.84176044 73.48828125 351.92578125 C74.31714844 352.28027344 75.14601563 352.63476562 76 353 C76.66 352.67 77.32 352.34 78 352 C60.0651232 339.85172673 39.90120418 332.2575863 18 333 Z " fill="#010102" transform="translate(345,62)"/>
<path d="M0 0 C6.52652886 6.07899545 11.8596522 12.94042302 16.484375 20.546875 C19.07291711 24.78819517 21.34975724 27.06861279 25.734375 29.546875 C26.415 30.413125 27.095625 31.279375 27.796875 32.171875 C32.0701536 35.62686621 36.30220857 35.61289794 41.65332031 36.26367188 C62.03143586 39.03685513 86.44422189 44.39829034 99.734375 61.546875 C107.57800922 72.90567042 107.57800922 72.90567042 108.734375 79.546875 C108.1441304 79.55496185 107.5538858 79.56304871 106.945755 79.57138062 C100.79735932 79.65749933 94.64928331 79.75700627 88.5012207 79.86425781 C86.20733004 79.90251905 83.91337997 79.93737689 81.61938477 79.96875 C78.3202594 80.01446206 75.02154204 80.07244722 71.72265625 80.1328125 C70.69852127 80.14436371 69.67438629 80.15591492 68.61921692 80.16781616 C67.17828926 80.1976207 67.17828926 80.1976207 65.70825195 80.22802734 C64.44583427 80.24801285 64.44583427 80.24801285 63.15791321 80.2684021 C60.37678278 80.58796358 58.24479825 81.31675192 55.734375 82.546875 C53.29588254 86.49491042 53.15193438 91.02439489 53.734375 95.546875 C54.394375 97.196875 55.054375 98.846875 55.734375 100.546875 C52.104375 100.546875 48.474375 100.546875 44.734375 100.546875 C43.8990625 98.690625 43.8990625 98.690625 43.046875 96.796875 C41.17085275 93.0115677 39.14106567 91.08005524 35.734375 88.546875 C35.239375 87.70125 34.744375 86.855625 34.234375 85.984375 C32.29141227 82.82706057 31.16549269 82.05285596 27.734375 80.546875 C23.89129188 80.09351855 20.06551732 80.13120339 16.19950867 80.14814758 C15.01917346 80.14150076 13.83883826 80.13485393 12.62273532 80.12800568 C9.35028494 80.11258015 6.0781406 80.11053772 2.80566585 80.11413515 C-0.72465059 80.11475879 -4.25489077 80.09814089 -7.78517151 80.08361816 C-13.90035376 80.06082102 -20.01547901 80.04894514 -26.13070107 80.04448891 C-34.97226717 80.03803017 -43.81373017 80.01509766 -52.65525474 79.98814561 C-67.00005442 79.94486498 -81.34484976 79.91490552 -95.68969727 79.89331055 C-109.62428927 79.87230468 -123.55884578 79.84503301 -137.4934082 79.80932617 C-138.35234931 79.80712735 -139.21129042 79.80492852 -140.09626005 79.80266307 C-144.40531967 79.79159351 -148.71437896 79.78040068 -153.0234381 79.76914656 C-188.77080343 79.6759434 -224.51818505 79.6043538 -260.265625 79.546875 C-253.89209353 62.78252371 -238.73432631 52.47935863 -223.1015625 45.23046875 C-211.33312119 39.98426118 -199.19861519 37.61185636 -186.46484375 36.09375 C-185.32660156 35.95453125 -184.18835938 35.8153125 -183.015625 35.671875 C-181.52289063 35.52105469 -181.52289063 35.52105469 -180 35.3671875 C-174.19064636 33.62438141 -171.30417149 28.33795298 -168.140625 23.484375 C-151.24467647 -1.59073233 -125.51764165 -17.34855982 -96.078125 -23.640625 C-62.4255178 -29.72501638 -26.40307716 -22.22631919 0 0 Z " fill="#FEB900" transform="translate(337.265625,365.453125)"/>
</svg>
